# xmcd CD database file generated by MAGIX-FreeDB-MP3_Maker_12 v2.0beta1
# 
# Track frame offsets:
#      150
#      21553
#      37123
#      51975
#      67555
#      86468
#      105085
#      122390
#      141526
#      158528
#      173965
#      193396
#      215037
#      231366
#      245079
#      263178
#      277641
#      289620
#      301212
#      320243
# 
# Disc length: 4447 seconds
# 
# Revision: 1 
# Processed by: cddbd v1.5.2PL0 Copyright (c) Steve Scherf et al.
# Submitted via: MAGIX-FreeDB-MP3_Maker_12 v2.0beta1
# 
DISCID=24115d14
DTITLE=Diverse - Das Poparchiv 1979
DYEAR=1979
DGENRE=Schlager
TTITLE0=Village People - Y.M.C.A
TTITLE1=Buggles - Video Killed The Radio Star
TTITLE2=Gloria Gaynor - I Will Survive
TTITLE3=Racey - Some Girls
TTITLE4=Blondie - Heart Of Glass
TTITLE5=Anita Ward - Ring My Bell
TTITLE6=Nick Straker Band - A Walk In The Park
TTITLE7=Cliff Richard - We Don't Talk Anymore
TTITLE8=Roxy Musik - Dance Away
TTITLE9=Luv' - Trojan Horse
TTITLE10=The Boomtown Rats - I Don't Like Mondays
TTITLE11=Earth Wind and Fire - Boogie Wonderland
TTITLE12=Eruption - One Way Ticket
TTITLE13=Oliver Onions - Dune Buggy
TTITLE14=Boney M. - El Lute
TTITLE15=M - Pop Musik
TTITLE16=Richard Clayderman - Ballade Pour Adeline
TTITLE17=Thom Pace - Maybe
TTITLE18=Clout - Save Me
TTITLE19=Dr. Hook - When You're In Love With A Beautiful Woman
EXTD=YEAR: 1979
EXTT0=
EXTT1=
EXTT2=
EXTT3=
EXTT4=
EXTT5=
EXTT6=
EXTT7=
EXTT8=
EXTT9=
EXTT10=
EXTT11=
EXTT12=
EXTT13=
EXTT14=
EXTT15=
EXTT16=
EXTT17=
EXTT18=
EXTT19=
PLAYORDER=
